<svg width="226" height="278" viewBox="0 0 226 278" fill="none" xmlns="http://www.w3.org/2000/svg">
<path fill-rule="evenodd" clip-rule="evenodd" d="M226 139C226 140.785 224.554 142.233 222.771 142.233L3.22858 142.233C1.4454 142.233 0 140.785 0 139C0 137.215 1.4454 135.767 3.22858 135.767L222.771 135.767C224.554 135.767 226 137.215 226 139ZM193.714 161.628C193.714 163.413 192.269 164.86 190.486 164.86H3.22858C1.4454 164.86 0 163.413 0 161.628C0 159.843 1.4454 158.395 3.22858 158.395H190.486C192.269 158.395 193.714 159.843 193.714 161.628ZM161.429 184.256C161.429 186.041 159.983 187.488 158.2 187.488H3.22858C1.4454 187.488 0 186.041 0 184.256C0 182.471 1.4454 181.023 3.22858 181.023H158.2C159.983 181.023 161.429 182.471 161.429 184.256ZM129.143 206.884C129.143 208.669 127.697 210.116 125.914 210.116H3.22858C1.4454 210.116 0 208.669 0 206.884C0 205.099 1.4454 203.651 3.22858 203.651H125.914C127.697 203.651 129.143 205.099 129.143 206.884ZM96.8571 229.512C96.8571 231.297 95.4117 232.744 93.6286 232.744L3.22858 232.744C1.4454 232.744 0 231.297 0 229.512C0 227.726 1.4454 226.279 3.22858 226.279L93.6286 226.279C95.4117 226.279 96.8571 227.726 96.8571 229.512ZM64.5714 252.14C64.5714 253.925 63.126 255.372 61.3429 255.372L3.22858 255.372C1.4454 255.372 0 253.925 0 252.14C0 250.354 1.4454 248.907 3.22858 248.907L61.3429 248.907C63.126 248.907 64.5714 250.354 64.5714 252.14ZM29.0571 278C30.8403 278 32.2857 276.553 32.2857 274.767C32.2857 272.982 30.8403 271.535 29.0571 271.535H3.22858C1.4454 271.535 0 272.982 0 274.767C0 276.553 1.4454 278 3.22858 278H29.0571ZM29.0571 0C30.8403 0 32.2857 1.44739 32.2857 3.23254C32.2857 5.01773 30.8403 6.46512 29.0571 6.46512H3.22858C1.4454 6.46512 0 5.01773 0 3.23254C0 1.44739 1.4454 0 3.22858 0H29.0571ZM61.3429 22.6279C63.126 22.6279 64.5714 24.0753 64.5714 25.8605C64.5714 27.6456 63.126 29.093 61.3429 29.093L3.22858 29.093C1.4454 29.093 0 27.6456 0 25.8605C0 24.0753 1.4454 22.6279 3.22858 22.6279L61.3429 22.6279ZM93.6286 45.2558C95.4117 45.2558 96.8571 46.7032 96.8571 48.4884C96.8571 50.2735 95.4117 51.7209 93.6286 51.7209L3.22858 51.7209C1.4454 51.7209 0 50.2735 0 48.4884C0 46.7032 1.4454 45.2558 3.22858 45.2558L93.6286 45.2558ZM125.914 67.8837C127.697 67.8837 129.143 69.3311 129.143 71.1163C129.143 72.9014 127.697 74.3488 125.914 74.3488L3.22858 74.3488C1.4454 74.3488 0 72.9014 0 71.1163C0 69.3311 1.4454 67.8837 3.22858 67.8837L125.914 67.8837ZM158.2 90.5116C159.983 90.5116 161.429 91.959 161.429 93.7442C161.429 95.5293 159.983 96.9767 158.2 96.9767L3.22858 96.9767C1.4454 96.9767 0 95.5293 0 93.7442C0 91.959 1.4454 90.5116 3.22858 90.5116L158.2 90.5116ZM190.486 113.14C192.269 113.14 193.714 114.587 193.714 116.372C193.714 118.157 192.269 119.605 190.486 119.605L3.22858 119.605C1.4454 119.605 0 118.157 0 116.372C0 114.587 1.4454 113.14 3.22858 113.14L190.486 113.14Z" fill="#58B1CF"/>
</svg>
