<svg width="100" height="123" viewBox="0 0 100 123" fill="none" xmlns="http://www.w3.org/2000/svg">
<path fill-rule="evenodd" clip-rule="evenodd" d="M0 61.5044C0 62.2943 0.639605 62.9347 1.42857 62.9347L98.5714 62.9347C99.3604 62.9347 100 62.2943 100 61.5044C100 60.7145 99.3604 60.074 98.5714 60.074L1.42857 60.074C0.639605 60.074 0 60.7145 0 61.5044ZM14.2857 71.5167C14.2857 72.3066 14.9253 72.947 15.7143 72.947H98.5714C99.3604 72.947 100 72.3066 100 71.5167C100 70.7268 99.3604 70.0864 98.5714 70.0864H15.7143C14.9253 70.0864 14.2857 70.7268 14.2857 71.5167ZM28.5714 81.5291C28.5714 82.319 29.211 82.9594 30 82.9594H98.5714C99.3604 82.9594 100 82.319 100 81.5291C100 80.7392 99.3604 80.0987 98.5714 80.0987H30C29.211 80.0987 28.5714 80.7392 28.5714 81.5291ZM42.8571 91.5414C42.8571 92.3313 43.4967 92.9717 44.2857 92.9717H98.5714C99.3604 92.9717 100 92.3313 100 91.5414C100 90.7515 99.3604 90.1111 98.5714 90.1111H44.2857C43.4967 90.1111 42.8571 90.7515 42.8571 91.5414ZM57.1429 101.554C57.1429 102.344 57.7824 102.984 58.5714 102.984H98.5714C99.3604 102.984 100 102.344 100 101.554C100 100.764 99.3604 100.123 98.5714 100.123H58.5714C57.7824 100.123 57.1429 100.764 57.1429 101.554ZM71.4286 111.566C71.4286 112.356 72.0681 112.996 72.8571 112.996L98.5714 112.996C99.3604 112.996 100 112.356 100 111.566C100 110.776 99.3604 110.136 98.5714 110.136L72.8571 110.136C72.0681 110.136 71.4286 110.776 71.4286 111.566ZM87.1429 123.009C86.3539 123.009 85.7143 122.368 85.7143 121.578C85.7143 120.789 86.3539 120.148 87.1429 120.148L98.5714 120.148C99.3604 120.148 100 120.789 100 121.578C100 122.368 99.3604 123.009 98.5714 123.009H87.1429ZM87.1429 -6.86646e-05C86.3539 -6.86646e-05 85.7143 0.640373 85.7143 1.43027C85.7143 2.22017 86.3539 2.8606 87.1429 2.8606H98.5714C99.3604 2.8606 100 2.22017 100 1.43027C100 0.640373 99.3604 -6.86646e-05 98.5714 -6.86646e-05H87.1429ZM72.8571 10.0123C72.0681 10.0123 71.4286 10.6527 71.4286 11.4426C71.4286 12.2325 72.0681 12.873 72.8571 12.873L98.5714 12.873C99.3604 12.873 100 12.2325 100 11.4426C100 10.6527 99.3604 10.0123 98.5714 10.0123L72.8571 10.0123ZM58.5714 20.0246C57.7824 20.0246 57.1429 20.6651 57.1429 21.455C57.1429 22.2449 57.7824 22.8853 58.5714 22.8853L98.5714 22.8853C99.3604 22.8853 100 22.2449 100 21.455C100 20.6651 99.3604 20.0246 98.5714 20.0246L58.5714 20.0246ZM44.2857 30.037C43.4967 30.037 42.8571 30.6774 42.8571 31.4673C42.8571 32.2572 43.4967 32.8977 44.2857 32.8977L98.5714 32.8977C99.3604 32.8977 100 32.2572 100 31.4673C100 30.6774 99.3604 30.037 98.5714 30.037L44.2857 30.037ZM30 40.0493C29.211 40.0493 28.5714 40.6898 28.5714 41.4797C28.5714 42.2696 29.211 42.91 30 42.91L98.5714 42.91C99.3604 42.91 100 42.2696 100 41.4797C100 40.6898 99.3604 40.0493 98.5714 40.0493L30 40.0493ZM15.7143 50.0617C14.9253 50.0617 14.2857 50.7021 14.2857 51.492C14.2857 52.2819 14.9253 52.9223 15.7143 52.9223L98.5714 52.9223C99.3604 52.9223 100 52.2819 100 51.492C100 50.7021 99.3604 50.0617 98.5714 50.0617L15.7143 50.0617Z" fill="#58B1CF"/>
</svg>
