<svg width="112" height="100" viewBox="0 0 112 100" fill="none" xmlns="http://www.w3.org/2000/svg">
<path d="M110.306 99.9999H0V1.53061C0 0.714289 0.612238 0.102051 1.42856 0.102051C2.24489 0.102051 2.85716 0.714289 2.85716 1.53061V97.2448H110.306C111.122 97.2448 111.735 97.857 111.735 98.6733C111.735 99.3876 111.122 99.9999 110.306 99.9999Z" fill="#58B1CF"/>
<path d="M110.306 91.5305H9.49023V1.53061C9.49023 0.714289 10.1025 0.102051 10.9188 0.102051C11.7351 0.102051 12.3474 0.714289 12.3474 1.53061V88.6734H110.306C111.123 88.6734 111.735 89.2856 111.735 90.102C111.735 90.8162 111.123 91.5305 110.306 91.5305Z" fill="#58B1CF"/>
<path d="M110.306 82.9591H19.082V1.42856C19.082 0.612238 19.6943 0 20.5106 0C21.3269 0 21.9392 0.612238 21.9392 1.42856V80.102H110.306C111.123 80.102 111.735 80.7142 111.735 81.5305C111.735 82.3468 111.123 82.9591 110.306 82.9591Z" fill="#58B1CF"/>
<path d="M110.306 74.4898H28.6738V1.42856C28.6738 0.612238 29.2861 0 30.1024 0C30.9187 0 31.531 0.612238 31.531 1.42856V71.6326H110.306C111.123 71.6326 111.735 72.2448 111.735 73.0612C111.735 73.8775 111.123 74.4898 110.306 74.4898Z" fill="#58B1CF"/>
<path d="M110.307 66.0203H38.1641V1.53061C38.1641 0.714289 38.7763 0.102051 39.5927 0.102051C40.409 0.102051 41.0212 0.714289 41.0212 1.53061V63.1632H110.307C111.123 63.1632 111.735 63.7755 111.735 64.5918C111.735 65.4081 111.123 66.0203 110.307 66.0203Z" fill="#58B1CF"/>
</svg>
