<svg width="213" height="111" viewBox="0 0 213 111" fill="none" xmlns="http://www.w3.org/2000/svg">
<path d="M209.582 111H0V2.43153C0 1.53148 1.16325 0.856445 2.71427 0.856445C4.26529 0.856445 5.42861 1.53148 5.42861 2.43153V107.962H209.582C211.133 107.962 212.296 108.637 212.296 109.537C212.296 110.325 211.133 111 209.582 111Z" fill="#58B1CF"/>
<path d="M209.581 101.662H18.0303V2.43153C18.0303 1.53148 19.1935 0.856445 20.7445 0.856445C22.2956 0.856445 23.4588 1.53148 23.4588 2.43153V98.5119H209.581C211.132 98.5119 212.296 99.1869 212.296 100.087C212.296 100.875 211.132 101.662 209.581 101.662Z" fill="#58B1CF"/>
<path d="M209.581 92.2113H36.2549V2.31873C36.2549 1.41868 37.4181 0.743652 38.9692 0.743652C40.5202 0.743652 41.6834 1.41868 41.6834 2.31873V89.0611H209.581C211.132 89.0611 212.296 89.7361 212.296 90.6361C212.296 91.5362 211.132 92.2113 209.581 92.2113Z" fill="#58B1CF"/>
<path d="M209.582 82.8733H54.4805V2.31873C54.4805 1.41868 55.6437 0.743652 57.1947 0.743652C58.7458 0.743652 59.909 1.41868 59.909 2.31873V79.723H209.582C211.133 79.723 212.297 80.3981 212.297 81.2981C212.297 82.1982 211.133 82.8733 209.582 82.8733Z" fill="#58B1CF"/>
<path d="M209.582 73.5355H72.5107V2.43153C72.5107 1.53148 73.6741 0.856445 75.2251 0.856445C76.7761 0.856445 77.9393 1.53148 77.9393 2.43153V70.3853H209.582C211.133 70.3853 212.297 71.0604 212.297 71.9604C212.297 72.8605 211.133 73.5355 209.582 73.5355Z" fill="#58B1CF"/>
</svg>
